<mxfile host="app.diagrams.net" modified="2024-03-07T23:11:15.709Z" agent="Mozilla/5.0 (X11; Linux x86_64; rv:122.0) Gecko/20100101 Firefox/122.0" etag="CXETSY_gNFxAlU2iNwsR" version="24.0.2" type="github">
  <diagram name="PÃ¡gina-1" id="4BAUKg4kQgr5QYZLOgR9">
    <mxGraphModel dx="794" dy="510" grid="1" gridSize="10" guides="1" tooltips="1" connect="1" arrows="1" fold="1" page="1" pageScale="1" pageWidth="827" pageHeight="1169" math="0" shadow="0">
      <root>
        <mxCell id="0" />
        <mxCell id="1" parent="0" />
        <mxCell id="dw0gPl1yt-0RiEL9B6GN-10" style="edgeStyle=orthogonalEdgeStyle;rounded=0;orthogonalLoop=1;jettySize=auto;html=1;entryX=0;entryY=0.5;entryDx=0;entryDy=0;" edge="1" parent="1" source="dw0gPl1yt-0RiEL9B6GN-1" target="dw0gPl1yt-0RiEL9B6GN-6">
          <mxGeometry relative="1" as="geometry" />
        </mxCell>
        <mxCell id="dw0gPl1yt-0RiEL9B6GN-1" value="" style="ellipse;whiteSpace=wrap;html=1;aspect=fixed;" vertex="1" parent="1">
          <mxGeometry x="100" y="70" width="50" height="50" as="geometry" />
        </mxCell>
        <mxCell id="dw0gPl1yt-0RiEL9B6GN-12" style="edgeStyle=orthogonalEdgeStyle;rounded=0;orthogonalLoop=1;jettySize=auto;html=1;entryX=0;entryY=0.5;entryDx=0;entryDy=0;" edge="1" parent="1" source="dw0gPl1yt-0RiEL9B6GN-6" target="dw0gPl1yt-0RiEL9B6GN-11">
          <mxGeometry relative="1" as="geometry" />
        </mxCell>
        <mxCell id="dw0gPl1yt-0RiEL9B6GN-6" value="Esperando voto" style="swimlane;childLayout=stackLayout;horizontal=1;startSize=50;horizontalStack=0;rounded=1;fontSize=14;fontStyle=0;strokeWidth=2;resizeParent=0;resizeLast=1;shadow=0;dashed=0;align=center;arcSize=4;whiteSpace=wrap;html=1;" vertex="1" parent="1">
          <mxGeometry x="190" y="35" width="160" height="120" as="geometry" />
        </mxCell>
        <mxCell id="dw0gPl1yt-0RiEL9B6GN-15" style="edgeStyle=orthogonalEdgeStyle;rounded=0;orthogonalLoop=1;jettySize=auto;html=1;entryX=0;entryY=0.5;entryDx=0;entryDy=0;" edge="1" parent="1" source="dw0gPl1yt-0RiEL9B6GN-11" target="dw0gPl1yt-0RiEL9B6GN-14">
          <mxGeometry relative="1" as="geometry" />
        </mxCell>
        <mxCell id="dw0gPl1yt-0RiEL9B6GN-11" value="Iniciar votacao" style="swimlane;childLayout=stackLayout;horizontal=1;startSize=50;horizontalStack=0;rounded=1;fontSize=14;fontStyle=0;strokeWidth=2;resizeParent=0;resizeLast=1;shadow=0;dashed=0;align=center;arcSize=4;whiteSpace=wrap;html=1;" vertex="1" parent="1">
          <mxGeometry x="410" y="35" width="160" height="120" as="geometry" />
        </mxCell>
        <mxCell id="dw0gPl1yt-0RiEL9B6GN-18" style="edgeStyle=orthogonalEdgeStyle;rounded=0;orthogonalLoop=1;jettySize=auto;html=1;entryX=1;entryY=0.5;entryDx=0;entryDy=0;" edge="1" parent="1" source="dw0gPl1yt-0RiEL9B6GN-13" target="dw0gPl1yt-0RiEL9B6GN-17">
          <mxGeometry relative="1" as="geometry" />
        </mxCell>
        <mxCell id="dw0gPl1yt-0RiEL9B6GN-13" value="Voto Registrado" style="swimlane;childLayout=stackLayout;horizontal=1;startSize=50;horizontalStack=0;rounded=1;fontSize=14;fontStyle=0;strokeWidth=2;resizeParent=0;resizeLast=1;shadow=0;dashed=0;align=center;arcSize=4;whiteSpace=wrap;html=1;" vertex="1" parent="1">
          <mxGeometry x="620" y="200" width="160" height="120" as="geometry" />
        </mxCell>
        <mxCell id="dw0gPl1yt-0RiEL9B6GN-16" style="edgeStyle=orthogonalEdgeStyle;rounded=0;orthogonalLoop=1;jettySize=auto;html=1;entryX=0.5;entryY=0;entryDx=0;entryDy=0;" edge="1" parent="1" source="dw0gPl1yt-0RiEL9B6GN-14" target="dw0gPl1yt-0RiEL9B6GN-13">
          <mxGeometry relative="1" as="geometry" />
        </mxCell>
        <mxCell id="dw0gPl1yt-0RiEL9B6GN-14" value="Registrar voto" style="swimlane;childLayout=stackLayout;horizontal=1;startSize=50;horizontalStack=0;rounded=1;fontSize=14;fontStyle=0;strokeWidth=2;resizeParent=0;resizeLast=1;shadow=0;dashed=0;align=center;arcSize=4;whiteSpace=wrap;html=1;" vertex="1" parent="1">
          <mxGeometry x="620" y="35" width="160" height="120" as="geometry" />
        </mxCell>
        <mxCell id="dw0gPl1yt-0RiEL9B6GN-20" style="edgeStyle=orthogonalEdgeStyle;rounded=0;orthogonalLoop=1;jettySize=auto;html=1;entryX=1;entryY=0.5;entryDx=0;entryDy=0;" edge="1" parent="1" source="dw0gPl1yt-0RiEL9B6GN-17" target="dw0gPl1yt-0RiEL9B6GN-19">
          <mxGeometry relative="1" as="geometry" />
        </mxCell>
        <mxCell id="dw0gPl1yt-0RiEL9B6GN-17" value="Encerrado" style="swimlane;childLayout=stackLayout;horizontal=1;startSize=50;horizontalStack=0;rounded=1;fontSize=14;fontStyle=0;strokeWidth=2;resizeParent=0;resizeLast=1;shadow=0;dashed=0;align=center;arcSize=4;whiteSpace=wrap;html=1;" vertex="1" parent="1">
          <mxGeometry x="410" y="200" width="160" height="120" as="geometry" />
        </mxCell>
        <mxCell id="dw0gPl1yt-0RiEL9B6GN-19" value="" style="ellipse;whiteSpace=wrap;html=1;aspect=fixed;" vertex="1" parent="1">
          <mxGeometry x="310" y="235" width="50" height="50" as="geometry" />
        </mxCell>
      </root>
    </mxGraphModel>
  </diagram>
</mxfile>
